<svg version="1.1" viewBox="0.0 0.0 960.0 720.0" fill="none" stroke="none" stroke-linecap="square" stroke-miterlimit="10" xmlns:xlink="http://www.w3.org/1999/xlink" xmlns="http://www.w3.org/2000/svg"><clipPath id="p.0"><path d="m0 0l960.0 0l0 720.0l-960.0 0l0 -720.0z" clip-rule="nonzero"/></clipPath><g clip-path="url(#p.0)"><path fill="#000000" fill-opacity="0.0" d="m0 0l960.0 0l0 720.0l-960.0 0z" fill-rule="evenodd"/><path shape-rendering="crispEdges" fill="#000000" d="m100.0 57.007874l57.664047 0l0 50.29921l-57.664047 0l0 -50.29921z" fill-rule="nonzero"/><path shape-rendering="crispEdges" fill="#000000" d="m157.66405 57.007874l57.664032 0l0 50.29921l-57.664032 0l0 -50.29921z" fill-rule="nonzero"/><path shape-rendering="crispEdges" fill="#000000" d="m215.32808 57.007874l57.664047 0l0 50.29921l-57.664047 0l0 -50.29921z" fill-rule="nonzero"/><path shape-rendering="crispEdges" fill="#000000" d="m272.99213 57.007874l57.664032 0l0 50.29921l-57.664032 0l0 -50.29921z" fill-rule="nonzero"/><path shape-rendering="crispEdges" fill="#b7b7b7" d="m330.65616 57.007874l57.664062 0l0 50.29921l-57.664062 0l0 -50.29921z" fill-rule="nonzero"/><path shape-rendering="crispEdges" fill="#b7b7b7" d="m388.32022 57.007874l57.664032 0l0 50.29921l-57.664032 0l0 -50.29921z" fill-rule="nonzero"/><path shape-rendering="crispEdges" fill="#000000" d="m445.98425 57.007874l57.664032 0l0 50.29921l-57.664032 0l0 -50.29921z" fill-rule="nonzero"/><path shape-rendering="crispEdges" fill="#000000" d="m503.6483 57.007874l57.664032 0l0 50.29921l-57.664032 0l0 -50.29921z" fill-rule="nonzero"/><path shape-rendering="crispEdges" fill="#000000" d="m561.3123 57.007874l57.664062 0l0 50.29921l-57.664062 0l0 -50.29921z" fill-rule="nonzero"/><path shape-rendering="crispEdges" fill="#000000" d="m618.9764 57.007874l57.664062 0l0 50.29921l-57.664062 0l0 -50.29921z" fill-rule="nonzero"/><path shape-rendering="crispEdges" fill="#000000" d="m100.0 107.30708l57.664047 0l0 50.29921l-57.664047 0l0 -50.29921z" fill-rule="nonzero"/><path shape-rendering="crispEdges" fill="#000000" d="m157.66405 107.30708l57.664032 0l0 50.29921l-57.664032 0l0 -50.29921z" fill-rule="nonzero"/><path shape-rendering="crispEdges" fill="#000000" d="m215.32808 107.30708l57.664047 0l0 50.29921l-57.664047 0l0 -50.29921z" fill-rule="nonzero"/><path shape-rendering="crispEdges" fill="#b7b7b7" d="m272.99213 107.30708l57.664032 0l0 50.29921l-57.664032 0l0 -50.29921z" fill-rule="nonzero"/><path shape-rendering="crispEdges" fill="#b7b7b7" d="m330.65616 107.30708l57.664062 0l0 50.29921l-57.664062 0l0 -50.29921z" fill-rule="nonzero"/><path shape-rendering="crispEdges" fill="#b7b7b7" d="m388.32022 107.30708l57.664032 0l0 50.29921l-57.664032 0l0 -50.29921z" fill-rule="nonzero"/><path shape-rendering="crispEdges" fill="#b7b7b7" d="m445.98425 107.30708l57.664032 0l0 50.29921l-57.664032 0l0 -50.29921z" fill-rule="nonzero"/><path shape-rendering="crispEdges" fill="#000000" d="m503.6483 107.30708l57.664032 0l0 50.29921l-57.664032 0l0 -50.29921z" fill-rule="nonzero"/><path shape-rendering="crispEdges" fill="#000000" d="m561.3123 107.30708l57.664062 0l0 50.29921l-57.664062 0l0 -50.29921z" fill-rule="nonzero"/><path shape-rendering="crispEdges" fill="#000000" d="m618.9764 107.30708l57.664062 0l0 50.29921l-57.664062 0l0 -50.29921z" fill-rule="nonzero"/><path shape-rendering="crispEdges" fill="#000000" d="m100.0 157.6063l57.664047 0l0 50.299225l-57.664047 0l0 -50.299225z" fill-rule="nonzero"/><path shape-rendering="crispEdges" fill="#000000" d="m157.66405 157.6063l57.664032 0l0 50.299225l-57.664032 0l0 -50.299225z" fill-rule="nonzero"/><path shape-rendering="crispEdges" fill="#b7b7b7" d="m215.32808 157.6063l57.664047 0l0 50.299225l-57.664047 0l0 -50.299225z" fill-rule="nonzero"/><path shape-rendering="crispEdges" fill="#b7b7b7" d="m272.99213 157.6063l57.664032 0l0 50.299225l-57.664032 0l0 -50.299225z" fill-rule="nonzero"/><path shape-rendering="crispEdges" fill="#b7b7b7" d="m330.65616 157.6063l57.664062 0l0 50.299225l-57.664062 0l0 -50.299225z" fill-rule="nonzero"/><path shape-rendering="crispEdges" fill="#b7b7b7" d="m388.32022 157.6063l57.664032 0l0 50.299225l-57.664032 0l0 -50.299225z" fill-rule="nonzero"/><path shape-rendering="crispEdges" fill="#b7b7b7" d="m445.98425 157.6063l57.664032 0l0 50.299225l-57.664032 0l0 -50.299225z" fill-rule="nonzero"/><path shape-rendering="crispEdges" fill="#b7b7b7" d="m503.6483 157.6063l57.664032 0l0 50.299225l-57.664032 0l0 -50.299225z" fill-rule="nonzero"/><path shape-rendering="crispEdges" fill="#000000" d="m561.3123 157.6063l57.664062 0l0 50.299225l-57.664062 0l0 -50.299225z" fill-rule="nonzero"/><path shape-rendering="crispEdges" fill="#000000" d="m618.9764 157.6063l57.664062 0l0 50.299225l-57.664062 0l0 -50.299225z" fill-rule="nonzero"/><path shape-rendering="crispEdges" fill="#000000" d="m100.0 207.90552l57.664047 0l0 50.299194l-57.664047 0l0 -50.299194z" fill-rule="nonzero"/><path shape-rendering="crispEdges" fill="#b7b7b7" d="m157.66405 207.90552l57.664032 0l0 50.299194l-57.664032 0l0 -50.299194z" fill-rule="nonzero"/><path shape-rendering="crispEdges" fill="#b7b7b7" d="m215.32808 207.90552l57.664047 0l0 50.299194l-57.664047 0l0 -50.299194z" fill-rule="nonzero"/><path shape-rendering="crispEdges" fill="#b7b7b7" d="m272.99213 207.90552l57.664032 0l0 50.299194l-57.664032 0l0 -50.299194z" fill-rule="nonzero"/><path shape-rendering="crispEdges" fill="#b7b7b7" d="m330.65616 207.90552l57.664062 0l0 50.299194l-57.664062 0l0 -50.299194z" fill-rule="nonzero"/><path shape-rendering="crispEdges" fill="#b7b7b7" d="m388.32022 207.90552l57.664032 0l0 50.299194l-57.664032 0l0 -50.299194z" fill-rule="nonzero"/><path shape-rendering="crispEdges" fill="#b7b7b7" d="m445.98425 207.90552l57.664032 0l0 50.299194l-57.664032 0l0 -50.299194z" fill-rule="nonzero"/><path shape-rendering="crispEdges" fill="#b7b7b7" d="m503.6483 207.90552l57.664032 0l0 50.299194l-57.664032 0l0 -50.299194z" fill-rule="nonzero"/><path shape-rendering="crispEdges" fill="#b7b7b7" d="m561.3123 207.90552l57.664062 0l0 50.299194l-57.664062 0l0 -50.299194z" fill-rule="nonzero"/><path shape-rendering="crispEdges" fill="#000000" d="m618.9764 207.90552l57.664062 0l0 50.299194l-57.664062 0l0 -50.299194z" fill-rule="nonzero"/><path shape-rendering="crispEdges" fill="#b7b7b7" d="m100.0 258.2047l57.664047 0l0 50.299225l-57.664047 0l0 -50.299225z" fill-rule="nonzero"/><path shape-rendering="crispEdges" fill="#b7b7b7" d="m157.66405 258.2047l57.664032 0l0 50.299225l-57.664032 0l0 -50.299225z" fill-rule="nonzero"/><path shape-rendering="crispEdges" fill="#b7b7b7" d="m215.32808 258.2047l57.664047 0l0 50.299225l-57.664047 0l0 -50.299225z" fill-rule="nonzero"/><path shape-rendering="crispEdges" fill="#b7b7b7" d="m272.99213 258.2047l57.664032 0l0 50.299225l-57.664032 0l0 -50.299225z" fill-rule="nonzero"/><path shape-rendering="crispEdges" fill="#b7b7b7" d="m330.65616 258.2047l57.664062 0l0 50.299225l-57.664062 0l0 -50.299225z" fill-rule="nonzero"/><path shape-rendering="crispEdges" fill="#b7b7b7" d="m388.32022 258.2047l57.664032 0l0 50.299225l-57.664032 0l0 -50.299225z" fill-rule="nonzero"/><path shape-rendering="crispEdges" fill="#b7b7b7" d="m445.98425 258.2047l57.664032 0l0 50.299225l-57.664032 0l0 -50.299225z" fill-rule="nonzero"/><path shape-rendering="crispEdges" fill="#b7b7b7" d="m503.6483 258.2047l57.664032 0l0 50.299225l-57.664032 0l0 -50.299225z" fill-rule="nonzero"/><path shape-rendering="crispEdges" fill="#b7b7b7" d="m561.3123 258.2047l57.664062 0l0 50.299225l-57.664062 0l0 -50.299225z" fill-rule="nonzero"/><path shape-rendering="crispEdges" fill="#b7b7b7" d="m618.9764 258.2047l57.664062 0l0 50.299225l-57.664062 0l0 -50.299225z" fill-rule="nonzero"/><path shape-rendering="crispEdges" fill="#b7b7b7" d="m100.0 308.50394l57.664047 0l0 50.299225l-57.664047 0l0 -50.299225z" fill-rule="nonzero"/><path shape-rendering="crispEdges" fill="#b7b7b7" d="m157.66405 308.50394l57.664032 0l0 50.299225l-57.664032 0l0 -50.299225z" fill-rule="nonzero"/><path shape-rendering="crispEdges" fill="#b7b7b7" d="m215.32808 308.50394l57.664047 0l0 50.299225l-57.664047 0l0 -50.299225z" fill-rule="nonzero"/><path shape-rendering="crispEdges" fill="#b7b7b7" d="m272.99213 308.50394l57.664032 0l0 50.299225l-57.664032 0l0 -50.299225z" fill-rule="nonzero"/><path shape-rendering="crispEdges" fill="#b7b7b7" d="m330.65616 308.50394l57.664062 0l0 50.299225l-57.664062 0l0 -50.299225z" fill-rule="nonzero"/><path shape-rendering="crispEdges" fill="#b7b7b7" d="m388.32022 308.50394l57.664032 0l0 50.299225l-57.664032 0l0 -50.299225z" fill-rule="nonzero"/><path shape-rendering="crispEdges" fill="#b7b7b7" d="m445.98425 308.50394l57.664032 0l0 50.299225l-57.664032 0l0 -50.299225z" fill-rule="nonzero"/><path shape-rendering="crispEdges" fill="#b7b7b7" d="m503.6483 308.50394l57.664032 0l0 50.299225l-57.664032 0l0 -50.299225z" fill-rule="nonzero"/><path shape-rendering="crispEdges" fill="#b7b7b7" d="m561.3123 308.50394l57.664062 0l0 50.299225l-57.664062 0l0 -50.299225z" fill-rule="nonzero"/><path shape-rendering="crispEdges" fill="#b7b7b7" d="m618.9764 308.50394l57.664062 0l0 50.299225l-57.664062 0l0 -50.299225z" fill-rule="nonzero"/><path shape-rendering="crispEdges" fill="#000000" d="m100.0 358.80316l57.664047 0l0 50.299194l-57.664047 0l0 -50.299194z" fill-rule="nonzero"/><path shape-rendering="crispEdges" fill="#b7b7b7" d="m157.66405 358.80316l57.664032 0l0 50.299194l-57.664032 0l0 -50.299194z" fill-rule="nonzero"/><path shape-rendering="crispEdges" fill="#b7b7b7" d="m215.32808 358.80316l57.664047 0l0 50.299194l-57.664047 0l0 -50.299194z" fill-rule="nonzero"/><path shape-rendering="crispEdges" fill="#b7b7b7" d="m272.99213 358.80316l57.664032 0l0 50.299194l-57.664032 0l0 -50.299194z" fill-rule="nonzero"/><path shape-rendering="crispEdges" fill="#b7b7b7" d="m330.65616 358.80316l57.664062 0l0 50.299194l-57.664062 0l0 -50.299194z" fill-rule="nonzero"/><path shape-rendering="crispEdges" fill="#b7b7b7" d="m388.32022 358.80316l57.664032 0l0 50.299194l-57.664032 0l0 -50.299194z" fill-rule="nonzero"/><path shape-rendering="crispEdges" fill="#b7b7b7" d="m445.98425 358.80316l57.664032 0l0 50.299194l-57.664032 0l0 -50.299194z" fill-rule="nonzero"/><path shape-rendering="crispEdges" fill="#b7b7b7" d="m503.6483 358.80316l57.664032 0l0 50.299194l-57.664032 0l0 -50.299194z" fill-rule="nonzero"/><path shape-rendering="crispEdges" fill="#b7b7b7" d="m561.3123 358.80316l57.664062 0l0 50.299194l-57.664062 0l0 -50.299194z" fill-rule="nonzero"/><path shape-rendering="crispEdges" fill="#000000" d="m618.9764 358.80316l57.664062 0l0 50.299194l-57.664062 0l0 -50.299194z" fill-rule="nonzero"/><path shape-rendering="crispEdges" fill="#000000" d="m100.0 409.10236l57.664047 0l0 50.299225l-57.664047 0l0 -50.299225z" fill-rule="nonzero"/><path shape-rendering="crispEdges" fill="#000000" d="m157.66405 409.10236l57.664032 0l0 50.299225l-57.664032 0l0 -50.299225z" fill-rule="nonzero"/><path shape-rendering="crispEdges" fill="#b7b7b7" d="m215.32808 409.10236l57.664047 0l0 50.299225l-57.664047 0l0 -50.299225z" fill-rule="nonzero"/><path shape-rendering="crispEdges" fill="#b7b7b7" d="m272.99213 409.10236l57.664032 0l0 50.299225l-57.664032 0l0 -50.299225z" fill-rule="nonzero"/><path shape-rendering="crispEdges" fill="#b7b7b7" d="m330.65616 409.10236l57.664062 0l0 50.299225l-57.664062 0l0 -50.299225z" fill-rule="nonzero"/><path shape-rendering="crispEdges" fill="#b7b7b7" d="m388.32022 409.10236l57.664032 0l0 50.299225l-57.664032 0l0 -50.299225z" fill-rule="nonzero"/><path shape-rendering="crispEdges" fill="#b7b7b7" d="m445.98425 409.10236l57.664032 0l0 50.299225l-57.664032 0l0 -50.299225z" fill-rule="nonzero"/><path shape-rendering="crispEdges" fill="#b7b7b7" d="m503.6483 409.10236l57.664032 0l0 50.299225l-57.664032 0l0 -50.299225z" fill-rule="nonzero"/><path shape-rendering="crispEdges" fill="#000000" d="m561.3123 409.10236l57.664062 0l0 50.299225l-57.664062 0l0 -50.299225z" fill-rule="nonzero"/><path shape-rendering="crispEdges" fill="#000000" d="m618.9764 409.10236l57.664062 0l0 50.299225l-57.664062 0l0 -50.299225z" fill-rule="nonzero"/><path shape-rendering="crispEdges" fill="#000000" d="m100.0 459.40158l57.664047 0l0 50.299194l-57.664047 0l0 -50.299194z" fill-rule="nonzero"/><path shape-rendering="crispEdges" fill="#000000" d="m157.66405 459.40158l57.664032 0l0 50.299194l-57.664032 0l0 -50.299194z" fill-rule="nonzero"/><path shape-rendering="crispEdges" fill="#000000" d="m215.32808 459.40158l57.664047 0l0 50.299194l-57.664047 0l0 -50.299194z" fill-rule="nonzero"/><path shape-rendering="crispEdges" fill="#b7b7b7" d="m272.99213 459.40158l57.664032 0l0 50.299194l-57.664032 0l0 -50.299194z" fill-rule="nonzero"/><path shape-rendering="crispEdges" fill="#b7b7b7" d="m330.65616 459.40158l57.664062 0l0 50.299194l-57.664062 0l0 -50.299194z" fill-rule="nonzero"/><path shape-rendering="crispEdges" fill="#b7b7b7" d="m388.32022 459.40158l57.664032 0l0 50.299194l-57.664032 0l0 -50.299194z" fill-rule="nonzero"/><path shape-rendering="crispEdges" fill="#b7b7b7" d="m445.98425 459.40158l57.664032 0l0 50.299194l-57.664032 0l0 -50.299194z" fill-rule="nonzero"/><path shape-rendering="crispEdges" fill="#000000" d="m503.6483 459.40158l57.664032 0l0 50.299194l-57.664032 0l0 -50.299194z" fill-rule="nonzero"/><path shape-rendering="crispEdges" fill="#000000" d="m561.3123 459.40158l57.664062 0l0 50.299194l-57.664062 0l0 -50.299194z" fill-rule="nonzero"/><path shape-rendering="crispEdges" fill="#000000" d="m618.9764 459.40158l57.664062 0l0 50.299194l-57.664062 0l0 -50.299194z" fill-rule="nonzero"/><path shape-rendering="crispEdges" fill="#000000" d="m100.0 509.70078l57.664047 0l0 50.299225l-57.664047 0l0 -50.299225z" fill-rule="nonzero"/><path shape-rendering="crispEdges" fill="#000000" d="m157.66405 509.70078l57.664032 0l0 50.299225l-57.664032 0l0 -50.299225z" fill-rule="nonzero"/><path shape-rendering="crispEdges" fill="#000000" d="m215.32808 509.70078l57.664047 0l0 50.299225l-57.664047 0l0 -50.299225z" fill-rule="nonzero"/><path shape-rendering="crispEdges" fill="#000000" d="m272.99213 509.70078l57.664032 0l0 50.299225l-57.664032 0l0 -50.299225z" fill-rule="nonzero"/><path shape-rendering="crispEdges" fill="#b7b7b7" d="m330.65616 509.70078l57.664062 0l0 50.299225l-57.664062 0l0 -50.299225z" fill-rule="nonzero"/><path shape-rendering="crispEdges" fill="#b7b7b7" d="m388.32022 509.70078l57.664032 0l0 50.299225l-57.664032 0l0 -50.299225z" fill-rule="nonzero"/><path shape-rendering="crispEdges" fill="#000000" d="m445.98425 509.70078l57.664032 0l0 50.299225l-57.664032 0l0 -50.299225z" fill-rule="nonzero"/><path shape-rendering="crispEdges" fill="#000000" d="m503.6483 509.70078l57.664032 0l0 50.299225l-57.664032 0l0 -50.299225z" fill-rule="nonzero"/><path shape-rendering="crispEdges" fill="#000000" d="m561.3123 509.70078l57.664062 0l0 50.299225l-57.664062 0l0 -50.299225z" fill-rule="nonzero"/><path shape-rendering="crispEdges" fill="#000000" d="m618.9764 509.70078l57.664062 0l0 50.299225l-57.664062 0l0 -50.299225z" fill-rule="nonzero"/><path stroke="#ffffff" stroke-width="3.0" stroke-linecap="butt" d="m100.0 55.509186l0 150.89764" fill-rule="nonzero"/><path stroke="#000000" stroke-width="3.0" stroke-linecap="butt" d="m100.0 206.40683l0 150.89764" fill-rule="nonzero"/><path stroke="#ffffff" stroke-width="3.0" stroke-linecap="butt" d="m100.0 357.30447l0 204.19418" fill-rule="nonzero"/><path stroke="#ffffff" stroke-width="3.0" stroke-linecap="butt" d="m157.66405 55.509186l0 150.89764" fill-rule="nonzero"/><path stroke="#000000" stroke-width="3.0" stroke-linecap="butt" d="m157.66405 206.40683l0 150.89764" fill-rule="nonzero"/><path stroke="#ffffff" stroke-width="3.0" stroke-linecap="butt" d="m157.66405 357.30447l0 204.19418" fill-rule="nonzero"/><path stroke="#ffffff" stroke-width="3.0" stroke-linecap="butt" d="m215.32808 55.509186l0 150.89764" fill-rule="nonzero"/><path stroke="#000000" stroke-width="3.0" stroke-linecap="butt" d="m215.32808 206.40683l0 201.19684" fill-rule="nonzero"/><path stroke="#ffffff" stroke-width="3.0" stroke-linecap="butt" d="m215.32808 407.60367l0 153.89499" fill-rule="nonzero"/><path stroke="#ffffff" stroke-width="3.0" stroke-linecap="butt" d="m272.99213 55.509186l0 100.59842" fill-rule="nonzero"/><path stroke="#000000" stroke-width="3.0" stroke-linecap="butt" d="m272.99213 156.1076l0 301.7953" fill-rule="nonzero"/><path stroke="#ffffff" stroke-width="3.0" stroke-linecap="butt" d="m272.99213 457.9029l0 103.595764" fill-rule="nonzero"/><path stroke="#ffffff" stroke-width="3.0" stroke-linecap="butt" d="m330.65616 55.509186l0 50.29921" fill-rule="nonzero"/><path stroke="#000000" stroke-width="3.0" stroke-linecap="butt" d="m330.65616 105.808395l0 402.39368" fill-rule="nonzero"/><path stroke="#ffffff" stroke-width="3.0" stroke-linecap="butt" d="m330.65616 508.2021l0 53.29657" fill-rule="nonzero"/><path stroke="#000000" stroke-width="3.0" stroke-linecap="butt" d="m388.32022 55.509186l0 505.98947" fill-rule="nonzero"/><path stroke="#ffffff" stroke-width="3.0" stroke-linecap="butt" d="m445.98425 55.509186l0 50.29921" fill-rule="nonzero"/><path stroke="#000000" stroke-width="3.0" stroke-linecap="butt" d="m445.98425 105.808395l0 402.39368" fill-rule="nonzero"/><path stroke="#ffffff" stroke-width="3.0" stroke-linecap="butt" d="m445.98425 508.2021l0 53.29657" fill-rule="nonzero"/><path stroke="#ffffff" stroke-width="3.0" stroke-linecap="butt" d="m503.6483 55.509186l0 100.59842" fill-rule="nonzero"/><path stroke="#000000" stroke-width="3.0" stroke-linecap="butt" d="m503.6483 156.1076l0 301.7953" fill-rule="nonzero"/><path stroke="#ffffff" stroke-width="3.0" stroke-linecap="butt" d="m503.6483 457.9029l0 103.595764" fill-rule="nonzero"/><path stroke="#ffffff" stroke-width="3.0" stroke-linecap="butt" d="m561.3123 55.509186l0 150.89764" fill-rule="nonzero"/><path stroke="#000000" stroke-width="3.0" stroke-linecap="butt" d="m561.3123 206.40683l0 201.19684" fill-rule="nonzero"/><path stroke="#ffffff" stroke-width="3.0" stroke-linecap="butt" d="m561.3123 407.60367l0 153.89499" fill-rule="nonzero"/><path stroke="#ffffff" stroke-width="3.0" stroke-linecap="butt" d="m618.9764 55.509186l0 201.19684" fill-rule="nonzero"/><path stroke="#000000" stroke-width="3.0" stroke-linecap="butt" d="m618.9764 256.70602l0 100.59845" fill-rule="nonzero"/><path stroke="#ffffff" stroke-width="3.0" stroke-linecap="butt" d="m618.9764 357.30447l0 204.19418" fill-rule="nonzero"/><path stroke="#ffffff" stroke-width="3.0" stroke-linecap="butt" d="m676.64044 55.509186l0 201.19684" fill-rule="nonzero"/><path stroke="#000000" stroke-width="3.0" stroke-linecap="butt" d="m676.64044 256.70602l0 100.59845" fill-rule="nonzero"/><path stroke="#ffffff" stroke-width="3.0" stroke-linecap="butt" d="m676.64044 357.30447l0 204.19418" fill-rule="nonzero"/><path stroke="#ffffff" stroke-width="3.0" stroke-linecap="butt" d="m98.50131 57.007874l230.65616 0" fill-rule="nonzero"/><path stroke="#000000" stroke-width="3.0" stroke-linecap="butt" d="m329.15747 57.007874l115.328094 0" fill-rule="nonzero"/><path stroke="#ffffff" stroke-width="3.0" stroke-linecap="butt" d="m444.48557 57.007874l233.65353 0" fill-rule="nonzero"/><path stroke="#ffffff" stroke-width="3.0" stroke-linecap="butt" d="m98.50131 107.30708l230.65616 0" fill-rule="nonzero"/><path stroke="#000000" stroke-width="3.0" stroke-linecap="butt" d="m329.15747 107.30708l115.328094 0" fill-rule="nonzero"/><path stroke="#ffffff" stroke-width="3.0" stroke-linecap="butt" d="m444.48557 107.30708l233.65353 0" fill-rule="nonzero"/><path stroke="#ffffff" stroke-width="3.0" stroke-linecap="butt" d="m98.50131 157.6063l172.99213 0" fill-rule="nonzero"/><path stroke="#000000" stroke-width="3.0" stroke-linecap="butt" d="m271.49344 157.6063l230.65616 0" fill-rule="nonzero"/><path stroke="#ffffff" stroke-width="3.0" stroke-linecap="butt" d="m502.1496 157.6063l175.9895 0" fill-rule="nonzero"/><path stroke="#ffffff" stroke-width="3.0" stroke-linecap="butt" d="m98.50131 207.90552l115.32808 0" fill-rule="nonzero"/><path stroke="#000000" stroke-width="3.0" stroke-linecap="butt" d="m213.82939 207.90552l345.98425 0" fill-rule="nonzero"/><path stroke="#ffffff" stroke-width="3.0" stroke-linecap="butt" d="m559.81366 207.90552l118.32544 0" fill-rule="nonzero"/><path stroke="#000000" stroke-width="3.0" stroke-linecap="butt" d="m98.50131 258.2047l518.9763 0" fill-rule="nonzero"/><path stroke="#ffffff" stroke-width="3.0" stroke-linecap="butt" d="m617.47766 258.2047l60.661438 0" fill-rule="nonzero"/><path stroke="#000000" stroke-width="3.0" stroke-linecap="butt" d="m98.50131 308.50394l579.6378 0" fill-rule="nonzero"/><path stroke="#ffffff" stroke-width="3.0" stroke-linecap="butt" d="m98.50131 358.80316l57.664047 0" fill-rule="nonzero"/><path stroke="#000000" stroke-width="3.0" stroke-linecap="butt" d="m156.16536 358.80316l461.31232 0" fill-rule="nonzero"/><path stroke="#ffffff" stroke-width="3.0" stroke-linecap="butt" d="m617.47766 358.80316l60.661438 0" fill-rule="nonzero"/><path stroke="#ffffff" stroke-width="3.0" stroke-linecap="butt" d="m98.50131 409.10236l115.32808 0" fill-rule="nonzero"/><path stroke="#000000" stroke-width="3.0" stroke-linecap="butt" d="m213.82939 409.10236l345.98425 0" fill-rule="nonzero"/><path stroke="#ffffff" stroke-width="3.0" stroke-linecap="butt" d="m559.81366 409.10236l118.32544 0" fill-rule="nonzero"/><path stroke="#ffffff" stroke-width="3.0" stroke-linecap="butt" d="m98.50131 459.40158l172.99213 0" fill-rule="nonzero"/><path stroke="#000000" stroke-width="3.0" stroke-linecap="butt" d="m271.49344 459.40158l230.65616 0" fill-rule="nonzero"/><path stroke="#ffffff" stroke-width="3.0" stroke-linecap="butt" d="m502.1496 459.40158l175.9895 0" fill-rule="nonzero"/><path stroke="#ffffff" stroke-width="3.0" stroke-linecap="butt" d="m98.50131 509.70078l230.65616 0" fill-rule="nonzero"/><path stroke="#000000" stroke-width="3.0" stroke-linecap="butt" d="m329.15747 509.70078l115.328094 0" fill-rule="nonzero"/><path stroke="#ffffff" stroke-width="3.0" stroke-linecap="butt" d="m444.48557 509.70078l233.65353 0" fill-rule="nonzero"/><path stroke="#ffffff" stroke-width="3.0" stroke-linecap="butt" d="m98.50131 560.0l230.65616 0" fill-rule="nonzero"/><path stroke="#000000" stroke-width="3.0" stroke-linecap="butt" d="m329.15747 560.0l115.328094 0" fill-rule="nonzero"/><path stroke="#ffffff" stroke-width="3.0" stroke-linecap="butt" d="m444.48557 560.0l233.65353 0" fill-rule="nonzero"/><path fill="#000000" fill-opacity="0.0" d="m345.0656 629.35693l-145.51181 -84.0" fill-rule="evenodd"/><path stroke="#ff0000" stroke-width="3.0" stroke-linejoin="round" stroke-linecap="butt" d="m345.0656 629.35693l-129.92284 -75.000854" fill-rule="evenodd"/><path fill="#ff0000" stroke="#ff0000" stroke-width="3.0" stroke-linecap="butt" d="m217.62013 550.0646l-14.268066 -2.5150146l9.31337 11.097961z" fill-rule="evenodd"/><path fill="#000000" fill-opacity="0.0" d="m395.53543 626.2651l200.85037 -141.10236" fill-rule="evenodd"/><path stroke="#ff0000" stroke-width="3.0" stroke-linejoin="round" stroke-linecap="butt" d="m395.53543 626.2651l186.12173 -130.75507" fill-rule="evenodd"/><path fill="#ff0000" stroke="#ff0000" stroke-width="3.0" stroke-linecap="butt" d="m584.5056 499.56464l8.291565 -11.880798l-13.988525 3.771515z" fill-rule="evenodd"/><path fill="#000000" fill-opacity="0.0" d="m238.96588 629.35693l298.70868 0l0 42.015747l-298.70868 0z" fill-rule="evenodd"/><path fill="#ff0000" d="m248.80963 651.9801l1.65625 -0.140625q0.125 1.0 0.546875 1.640625q0.4375 0.640625 1.34375 1.046875q0.921875 0.390625 2.0625 0.390625q1.0 0 1.78125 -0.296875q0.78125 -0.296875 1.15625 -0.8125q0.375 -0.53125 0.375 -1.15625q0 -0.625 -0.375 -1.09375q-0.359375 -0.46875 -1.1875 -0.796875q-0.546875 -0.203125 -2.390625 -0.640625q-1.828125 -0.453125 -2.5625 -0.84375q-0.96875 -0.5 -1.4375 -1.234375q-0.46875 -0.75 -0.46875 -1.671875q0 -1.0 0.578125 -1.875q0.578125 -0.890625 1.671875 -1.34375q1.109375 -0.453125 2.453125 -0.453125q1.484375 0 2.609375 0.484375q1.140625 0.46875 1.75 1.40625q0.609375 0.921875 0.65625 2.09375l-1.6875 0.125q-0.140625 -1.265625 -0.9375 -1.90625q-0.78125 -0.65625 -2.3125 -0.65625q-1.609375 0 -2.34375 0.59375q-0.734375 0.59375 -0.734375 1.421875q0 0.71875 0.53125 1.171875q0.5 0.46875 2.65625 0.96875q2.15625 0.484375 2.953125 0.84375q1.171875 0.53125 1.71875 1.359375q0.5625 0.828125 0.5625 1.90625q0 1.0625 -0.609375 2.015625q-0.609375 0.9375 -1.75 1.46875q-1.140625 0.515625 -2.578125 0.515625q-1.8125 0 -3.046875 -0.53125q-1.21875 -0.53125 -1.921875 -1.59375q-0.6875 -1.0625 -0.71875 -2.40625zm16.412323 2.828125l0.234375 1.453125q-0.6875 0.140625 -1.234375 0.140625q-0.890625 0 -1.390625 -0.28125q-0.484375 -0.28125 -0.6875 -0.734375q-0.203125 -0.46875 -0.203125 -1.9375l0 -5.578125l-1.203125 0l0 -1.265625l1.203125 0l0 -2.390625l1.625 -0.984375l0 3.375l1.65625 0l0 1.265625l-1.65625 0l0 5.671875q0 0.6875 0.078125 0.890625q0.09375 0.203125 0.28125 0.328125q0.203125 0.109375 0.578125 0.109375q0.265625 0 0.71875 -0.0625zm1.5895386 1.46875l0 -9.671875l1.46875 0l0 1.46875q0.5625 -1.03125 1.03125 -1.359375q0.484375 -0.328125 1.0625 -0.328125q0.828125 0 1.6875 0.53125l-0.5625 1.515625q-0.609375 -0.359375 -1.203125 -0.359375q-0.546875 0 -0.96875 0.328125q-0.421875 0.328125 -0.609375 0.890625q-0.28125 0.875 -0.28125 1.921875l0 5.0625l-1.625 0zm5.618927 -4.84375q0 -2.6875 1.484375 -3.96875q1.25 -1.078125 3.046875 -1.078125q2.0 0 3.265625 1.3125q1.265625 1.296875 1.265625 3.609375q0 1.859375 -0.5625 2.9375q-0.5625 1.0625 -1.640625 1.65625q-1.0625 0.59375 -2.328125 0.59375q-2.03125 0 -3.28125 -1.296875q-1.25 -1.3125 -1.25 -3.765625zm1.6875 0q0 1.859375 0.796875 2.796875q0.8125 0.921875 2.046875 0.921875q1.21875 0 2.03125 -0.921875q0.8125 -0.9375 0.8125 -2.84375q0 -1.796875 -0.8125 -2.71875q-0.8125 -0.921875 -2.03125 -0.921875q-1.234375 0 -2.046875 0.921875q-0.796875 0.90625 -0.796875 2.765625zm9.297607 4.84375l0 -9.671875l1.46875 0l0 1.375q1.0625 -1.59375 3.078125 -1.59375q0.875 0 1.609375 0.3125q0.734375 0.3125 1.09375 0.828125q0.375 0.5 0.515625 1.203125q0.09375 0.453125 0.09375 1.59375l0 5.953125l-1.640625 0l0 -5.890625q0 -1.0 -0.203125 -1.484375q-0.1875 -0.5 -0.671875 -0.796875q-0.484375 -0.296875 -1.140625 -0.296875q-1.046875 0 -1.8125 0.671875q-0.75 0.65625 -0.75 2.515625l0 5.28125l-1.640625 0zm10.063202 0.796875l1.59375 0.234375q0.109375 0.75 0.5625 1.078125q0.609375 0.453125 1.671875 0.453125q1.140625 0 1.75 -0.453125q0.625 -0.453125 0.84375 -1.265625q0.125 -0.5 0.109375 -2.109375q-1.0625 1.265625 -2.671875 1.265625q-2.0 0 -3.09375 -1.4375q-1.09375 -1.4375 -1.09375 -3.453125q0 -1.390625 0.5 -2.5625q0.515625 -1.171875 1.453125 -1.796875q0.953125 -0.640625 2.25 -0.640625q1.703125 0 2.8125 1.375l0 -1.15625l1.515625 0l0 8.359375q0 2.265625 -0.46875 3.203125q-0.453125 0.9375 -1.453125 1.484375q-0.984375 0.546875 -2.453125 0.546875q-1.71875 0 -2.796875 -0.78125q-1.0625 -0.765625 -1.03125 -2.34375zm1.359375 -5.8125q0 1.90625 0.75 2.78125q0.765625 0.875 1.90625 0.875q1.125 0 1.890625 -0.859375q0.765625 -0.875 0.765625 -2.734375q0 -1.78125 -0.796875 -2.671875q-0.78125 -0.90625 -1.890625 -0.90625q-1.09375 0 -1.859375 0.890625q-0.765625 0.875 -0.765625 2.625zm20.824646 1.46875l1.609375 0.21875q-0.265625 1.65625 -1.359375 2.609375q-1.078125 0.9375 -2.671875 0.9375q-1.984375 0 -3.1875 -1.296875q-1.203125 -1.296875 -1.203125 -3.71875q0 -1.578125 0.515625 -2.75q0.515625 -1.171875 1.578125 -1.75q1.0625 -0.59375 2.3125 -0.59375q1.578125 0 2.578125 0.796875q1.0 0.796875 1.28125 2.265625l-1.59375 0.234375q-0.234375 -0.96875 -0.8125 -1.453125q-0.578125 -0.5 -1.390625 -0.5q-1.234375 0 -2.015625 0.890625q-0.78125 0.890625 -0.78125 2.8125q0 1.953125 0.75 2.84375q0.75 0.875 1.953125 0.875q0.96875 0 1.609375 -0.59375q0.65625 -0.59375 0.828125 -1.828125zm2.40625 -1.296875q0 -2.6875 1.484375 -3.96875q1.25 -1.078125 3.046875 -1.078125q2.0 0 3.265625 1.3125q1.265625 1.296875 1.265625 3.609375q0 1.859375 -0.5625 2.9375q-0.5625 1.0625 -1.640625 1.65625q-1.0625 0.59375 -2.328125 0.59375q-2.03125 0 -3.28125 -1.296875q-1.25 -1.3125 -1.25 -3.765625zm1.6875 0q0 1.859375 0.796875 2.796875q0.8125 0.921875 2.046875 0.921875q1.21875 0 2.03125 -0.921875q0.8125 -0.9375 0.8125 -2.84375q0 -1.796875 -0.8125 -2.71875q-0.8125 -0.921875 -2.03125 -0.921875q-1.234375 0 -2.046875 0.921875q-0.796875 0.90625 -0.796875 2.765625zm15.625732 4.84375l0 -1.421875q-1.125 1.640625 -3.0625 1.640625q-0.859375 0 -1.609375 -0.328125q-0.734375 -0.328125 -1.09375 -0.828125q-0.359375 -0.5 -0.5 -1.21875q-0.109375 -0.46875 -0.109375 -1.53125l0 -5.984375l1.640625 0l0 5.359375q0 1.28125 0.109375 1.734375q0.15625 0.640625 0.65625 1.015625q0.5 0.375 1.234375 0.375q0.734375 0 1.375 -0.375q0.65625 -0.390625 0.921875 -1.03125q0.265625 -0.65625 0.265625 -1.890625l0 -5.1875l1.640625 0l0 9.671875l-1.46875 0zm4.047577 3.703125l0 -13.375l1.484375 0l0 1.25q0.53125 -0.734375 1.1875 -1.09375q0.671875 -0.375 1.625 -0.375q1.234375 0 2.171875 0.640625q0.953125 0.625 1.4375 1.796875q0.484375 1.15625 0.484375 2.546875q0 1.484375 -0.53125 2.671875q-0.53125 1.1875 -1.546875 1.828125q-1.015625 0.625 -2.140625 0.625q-0.8125 0 -1.46875 -0.34375q-0.65625 -0.34375 -1.0625 -0.875l0 4.703125l-1.640625 0zm1.484375 -8.484375q0 1.859375 0.75 2.765625q0.765625 0.890625 1.828125 0.890625q1.09375 0 1.875 -0.921875q0.78125 -0.9375 0.78125 -2.875q0 -1.84375 -0.765625 -2.765625q-0.75 -0.921875 -1.8125 -0.921875q-1.046875 0 -1.859375 0.984375q-0.796875 0.96875 -0.796875 2.84375zm8.844482 4.78125l0 -13.359375l1.640625 0l0 13.359375l-1.640625 0zm4.191681 -11.46875l0 -1.890625l1.640625 0l0 1.890625l-1.640625 0zm0 11.46875l0 -9.671875l1.640625 0l0 9.671875l-1.640625 0zm4.1448364 0l0 -9.671875l1.46875 0l0 1.375q1.0625 -1.59375 3.078125 -1.59375q0.875 0 1.609375 0.3125q0.734375 0.3125 1.09375 0.828125q0.375 0.5 0.515625 1.203125q0.09375 0.453125 0.09375 1.59375l0 5.953125l-1.640625 0l0 -5.890625q0 -1.0 -0.203125 -1.484375q-0.1875 -0.5 -0.671875 -0.796875q-0.484375 -0.296875 -1.140625 -0.296875q-1.046875 0 -1.8125 0.671875q-0.75 0.65625 -0.75 2.515625l0 5.28125l-1.640625 0zm10.063202 0.796875l1.59375 0.234375q0.109375 0.75 0.5625 1.078125q0.609375 0.453125 1.671875 0.453125q1.140625 0 1.75 -0.453125q0.625 -0.453125 0.84375 -1.265625q0.125 -0.5 0.109375 -2.109375q-1.0625 1.265625 -2.671875 1.265625q-2.0 0 -3.09375 -1.4375q-1.09375 -1.4375 -1.09375 -3.453125q0 -1.390625 0.5 -2.5625q0.515625 -1.171875 1.453125 -1.796875q0.953125 -0.640625 2.25 -0.640625q1.703125 0 2.8125 1.375l0 -1.15625l1.515625 0l0 8.359375q0 2.265625 -0.46875 3.203125q-0.453125 0.9375 -1.453125 1.484375q-0.984375 0.546875 -2.453125 0.546875q-1.71875 0 -2.796875 -0.78125q-1.0625 -0.765625 -1.03125 -2.34375zm1.359375 -5.8125q0 1.90625 0.75 2.78125q0.765625 0.875 1.90625 0.875q1.125 0 1.890625 -0.859375q0.765625 -0.875 0.765625 -2.734375q0 -1.78125 -0.796875 -2.671875q-0.78125 -0.90625 -1.890625 -0.90625q-1.09375 0 -1.859375 0.890625q-0.765625 0.875 -0.765625 2.625zm14.512146 -6.453125l0 -1.890625l1.640625 0l0 1.890625l-1.640625 0zm0 11.46875l0 -9.671875l1.640625 0l0 9.671875l-1.640625 0zm4.1448364 0l0 -9.671875l1.46875 0l0 1.375q1.0625 -1.59375 3.078125 -1.59375q0.875 0 1.609375 0.3125q0.734375 0.3125 1.09375 0.828125q0.375 0.5 0.515625 1.203125q0.09375 0.453125 0.09375 1.59375l0 5.953125l-1.640625 0l0 -5.890625q0 -1.0 -0.203125 -1.484375q-0.1875 -0.5 -0.671875 -0.796875q-0.484375 -0.296875 -1.140625 -0.296875q-1.046875 0 -1.8125 0.671875q-0.75 0.65625 -0.75 2.515625l0 5.28125l-1.640625 0zm19.137146 -1.46875l0.234375 1.453125q-0.6875 0.140625 -1.234375 0.140625q-0.890625 0 -1.390625 -0.28125q-0.484375 -0.28125 -0.6875 -0.734375q-0.203125 -0.46875 -0.203125 -1.9375l0 -5.578125l-1.203125 0l0 -1.265625l1.203125 0l0 -2.390625l1.625 -0.984375l0 3.375l1.65625 0l0 1.265625l-1.65625 0l0 5.671875q0 0.6875 0.078125 0.890625q0.09375 0.203125 0.28125 0.328125q0.203125 0.109375 0.578125 0.109375q0.265625 0 0.71875 -0.0625zm1.6051636 1.46875l0 -13.359375l1.640625 0l0 4.796875q1.140625 -1.328125 2.890625 -1.328125q1.078125 0 1.859375 0.421875q0.796875 0.421875 1.140625 1.171875q0.34375 0.75 0.34375 2.171875l0 6.125l-1.640625 0l0 -6.125q0 -1.234375 -0.53125 -1.796875q-0.53125 -0.5625 -1.515625 -0.5625q-0.71875 0 -1.359375 0.390625q-0.640625 0.375 -0.921875 1.015625q-0.265625 0.640625 -0.265625 1.78125l0 5.296875l-1.640625 0zm17.000732 -3.109375l1.6875 0.203125q-0.40625 1.484375 -1.484375 2.3125q-1.078125 0.8125 -2.765625 0.8125q-2.125 0 -3.375 -1.296875q-1.234375 -1.3125 -1.234375 -3.671875q0 -2.453125 1.25 -3.796875q1.265625 -1.34375 3.265625 -1.34375q1.9375 0 3.15625 1.328125q1.234375 1.3125 1.234375 3.703125q0 0.15625 0 0.4375l-7.21875 0q0.09375 1.59375 0.90625 2.453125q0.8125 0.84375 2.015625 0.84375q0.90625 0 1.546875 -0.46875q0.640625 -0.484375 1.015625 -1.515625zm-5.390625 -2.65625l5.40625 0q-0.109375 -1.21875 -0.625 -1.828125q-0.78125 -0.953125 -2.03125 -0.953125q-1.125 0 -1.90625 0.765625q-0.765625 0.75 -0.84375 2.015625zm8.485077 2.875l1.625 -0.25q0.125 0.96875 0.75 1.5q0.625 0.515625 1.75 0.515625q1.125 0 1.671875 -0.453125q0.546875 -0.46875 0.546875 -1.09375q0 -0.546875 -0.484375 -0.875q-0.328125 -0.21875 -1.671875 -0.546875q-1.8125 -0.46875 -2.515625 -0.796875q-0.6875 -0.328125 -1.046875 -0.90625q-0.359375 -0.59375 -0.359375 -1.3125q0 -0.640625 0.296875 -1.1875q0.296875 -0.5625 0.8125 -0.921875q0.375 -0.28125 1.03125 -0.46875q0.671875 -0.203125 1.421875 -0.203125q1.140625 0 2.0 0.328125q0.859375 0.328125 1.265625 0.890625q0.421875 0.5625 0.578125 1.5l-1.609375 0.21875q-0.109375 -0.75 -0.640625 -1.171875q-0.515625 -0.421875 -1.46875 -0.421875q-1.140625 0 -1.625 0.375q-0.46875 0.375 -0.46875 0.875q0 0.3125 0.1875 0.578125q0.203125 0.265625 0.640625 0.4375q0.234375 0.09375 1.4375 0.421875q1.75 0.453125 2.4375 0.75q0.6875 0.296875 1.078125 0.859375q0.390625 0.5625 0.390625 1.40625q0 0.828125 -0.484375 1.546875q-0.46875 0.71875 -1.375 1.125q-0.90625 0.390625 -2.046875 0.390625q-1.875 0 -2.875 -0.78125q-0.984375 -0.78125 -1.25 -2.328125zm16.609375 -0.21875l1.6875 0.203125q-0.40625 1.484375 -1.484375 2.3125q-1.078125 0.8125 -2.765625 0.8125q-2.125 0 -3.375 -1.296875q-1.234375 -1.3125 -1.234375 -3.671875q0 -2.453125 1.25 -3.796875q1.265625 -1.34375 3.265625 -1.34375q1.9375 0 3.15625 1.328125q1.234375 1.3125 1.234375 3.703125q0 0.15625 0 0.4375l-7.21875 0q0.09375 1.59375 0.90625 2.453125q0.8125 0.84375 2.015625 0.84375q0.90625 0 1.546875 -0.46875q0.640625 -0.484375 1.015625 -1.515625zm-5.390625 -2.65625l5.40625 0q-0.109375 -1.21875 -0.625 -1.828125q-0.78125 -0.953125 -2.03125 -0.953125q-1.125 0 -1.90625 0.765625q-0.765625 0.75 -0.84375 2.015625zm14.309021 5.765625l0 -9.671875l1.46875 0l0 1.46875q0.5625 -1.03125 1.03125 -1.359375q0.484375 -0.328125 1.0625 -0.328125q0.828125 0 1.6875 0.53125l-0.5625 1.515625q-0.609375 -0.359375 -1.203125 -0.359375q-0.546875 0 -0.96875 0.328125q-0.421875 0.328125 -0.609375 0.890625q-0.28125 0.875 -0.28125 1.921875l0 5.0625l-1.625 0zm12.853302 -3.109375l1.6875 0.203125q-0.40625 1.484375 -1.484375 2.3125q-1.078125 0.8125 -2.765625 0.8125q-2.125 0 -3.375 -1.296875q-1.234375 -1.3125 -1.234375 -3.671875q0 -2.453125 1.25 -3.796875q1.265625 -1.34375 3.265625 -1.34375q1.9375 0 3.15625 1.328125q1.234375 1.3125 1.234375 3.703125q0 0.15625 0 0.4375l-7.21875 0q0.09375 1.59375 0.90625 2.453125q0.8125 0.84375 2.015625 0.84375q0.90625 0 1.546875 -0.46875q0.640625 -0.484375 1.015625 -1.515625zm-5.390625 -2.65625l5.40625 0q-0.109375 -1.21875 -0.625 -1.828125q-0.78125 -0.953125 -2.03125 -0.953125q-1.125 0 -1.90625 0.765625q-0.765625 0.75 -0.84375 2.015625zm8.828857 6.5625l1.59375 0.234375q0.109375 0.75 0.5625 1.078125q0.609375 0.453125 1.671875 0.453125q1.140625 0 1.75 -0.453125q0.625 -0.453125 0.84375 -1.265625q0.125 -0.5 0.109375 -2.109375q-1.0625 1.265625 -2.671875 1.265625q-2.0 0 -3.09375 -1.4375q-1.09375 -1.4375 -1.09375 -3.453125q0 -1.390625 0.5 -2.5625q0.515625 -1.171875 1.453125 -1.796875q0.953125 -0.640625 2.25 -0.640625q1.703125 0 2.8125 1.375l0 -1.15625l1.515625 0l0 8.359375q0 2.265625 -0.46875 3.203125q-0.453125 0.9375 -1.453125 1.484375q-0.984375 0.546875 -2.453125 0.546875q-1.71875 0 -2.796875 -0.78125q-1.0625 -0.765625 -1.03125 -2.34375zm1.359375 -5.8125q0 1.90625 0.75 2.78125q0.765625 0.875 1.90625 0.875q1.125 0 1.890625 -0.859375q0.765625 -0.875 0.765625 -2.734375q0 -1.78125 -0.796875 -2.671875q-0.78125 -0.90625 -1.890625 -0.90625q-1.09375 0 -1.859375 0.890625q-0.765625 0.875 -0.765625 2.625zm9.328827 -6.453125l0 -1.890625l1.640625 0l0 1.890625l-1.640625 0zm0 11.46875l0 -9.671875l1.640625 0l0 9.671875l-1.640625 0zm3.5354614 -4.84375q0 -2.6875 1.484375 -3.96875q1.25 -1.078125 3.046875 -1.078125q2.0 0 3.265625 1.3125q1.265625 1.296875 1.265625 3.609375q0 1.859375 -0.5625 2.9375q-0.5625 1.0625 -1.640625 1.65625q-1.0625 0.59375 -2.328125 0.59375q-2.03125 0 -3.28125 -1.296875q-1.25 -1.3125 -1.25 -3.765625zm1.6875 0q0 1.859375 0.796875 2.796875q0.8125 0.921875 2.046875 0.921875q1.21875 0 2.03125 -0.921875q0.8125 -0.9375 0.8125 -2.84375q0 -1.796875 -0.8125 -2.71875q-0.8125 -0.921875 -2.03125 -0.921875q-1.234375 0 -2.046875 0.921875q-0.796875 0.90625 -0.796875 2.765625zm9.297577 4.84375l0 -9.671875l1.46875 0l0 1.375q1.0625 -1.59375 3.078125 -1.59375q0.875 0 1.609375 0.3125q0.734375 0.3125 1.09375 0.828125q0.375 0.5 0.515625 1.203125q0.09375 0.453125 0.09375 1.59375l0 5.953125l-1.640625 0l0 -5.890625q0 -1.0 -0.203125 -1.484375q-0.1875 -0.5 -0.671875 -0.796875q-0.484375 -0.296875 -1.140625 -0.296875q-1.046875 0 -1.8125 0.671875q-0.75 0.65625 -0.75 2.515625l0 5.28125l-1.640625 0zm9.719482 -2.890625l1.625 -0.25q0.125 0.96875 0.75 1.5q0.625 0.515625 1.75 0.515625q1.125 0 1.671875 -0.453125q0.546875 -0.46875 0.546875 -1.09375q0 -0.546875 -0.484375 -0.875q-0.328125 -0.21875 -1.671875 -0.546875q-1.8125 -0.46875 -2.515625 -0.796875q-0.6875 -0.328125 -1.046875 -0.90625q-0.359375 -0.59375 -0.359375 -1.3125q0 -0.640625 0.296875 -1.1875q0.296875 -0.5625 0.8125 -0.921875q0.375 -0.28125 1.03125 -0.46875q0.671875 -0.203125 1.421875 -0.203125q1.140625 0 2.0 0.328125q0.859375 0.328125 1.265625 0.890625q0.421875 0.5625 0.578125 1.5l-1.609375 0.21875q-0.109375 -0.75 -0.640625 -1.171875q-0.515625 -0.421875 -1.46875 -0.421875q-1.140625 0 -1.625 0.375q-0.46875 0.375 -0.46875 0.875q0 0.3125 0.1875 0.578125q0.203125 0.265625 0.640625 0.4375q0.234375 0.09375 1.4375 0.421875q1.75 0.453125 2.4375 0.75q0.6875 0.296875 1.078125 0.859375q0.390625 0.5625 0.390625 1.40625q0 0.828125 -0.484375 1.546875q-0.46875 0.71875 -1.375 1.125q-0.90625 0.390625 -2.046875 0.390625q-1.875 0 -2.875 -0.78125q-0.984375 -0.78125 -1.25 -2.328125z" fill-rule="nonzero"/><path fill="#000000" fill-opacity="0.0" d="m726.1811 222.48819l-193.63776 61.795288" fill-rule="evenodd"/><path stroke="#ff0000" stroke-width="3.0" stroke-linejoin="round" stroke-linecap="butt" d="m726.1811 222.48819l-176.4898 56.322876" fill-rule="evenodd"/><path fill="#ff0000" stroke="#ff0000" stroke-width="3.0" stroke-linecap="butt" d="m548.1848 274.09042l-11.463379 8.85968l14.476318 0.581604z" fill-rule="evenodd"/><path fill="#000000" fill-opacity="0.0" d="m745.7507 208.06824l216.31494 0l0 64.62991l-216.31494 0z" fill-rule="evenodd"/><path fill="#ff0000" d="m758.5163 234.98824l-3.53125 -13.359375l1.8125 0l2.03125 8.765625q0.328125 1.375 0.5625 2.71875q0.5 -2.140625 0.59375 -2.46875l2.546875 -9.015625l2.125 0l1.921875 6.765625q0.71875 2.515625 1.03125 4.71875q0.265625 -1.265625 0.671875 -2.890625l2.09375 -8.59375l1.78125 0l-3.671875 13.359375l-1.703125 0l-2.8125 -10.171875q-0.359375 -1.28125 -0.421875 -1.5625q-0.203125 0.90625 -0.390625 1.5625l-2.828125 10.171875l-1.8125 0zm21.365173 -3.109375l1.6875 0.203125q-0.40625 1.484375 -1.484375 2.3125q-1.078125 0.8125 -2.765625 0.8125q-2.125 0 -3.375 -1.296875q-1.234375 -1.3125 -1.234375 -3.671875q0 -2.453125 1.25 -3.796875q1.265625 -1.34375 3.265625 -1.34375q1.9375 0 3.15625 1.328125q1.234375 1.3125 1.234375 3.703125q0 0.15625 0 0.4375l-7.21875 0q0.09375 1.59375 0.90625 2.453125q0.8125 0.84375 2.015625 0.84375q0.90625 0 1.546875 -0.46875q0.640625 -0.484375 1.015625 -1.515625zm-5.390625 -2.65625l5.40625 0q-0.109375 -1.21875 -0.625 -1.828125q-0.78125 -0.953125 -2.03125 -0.953125q-1.125 0 -1.90625 0.765625q-0.765625 0.75 -0.84375 2.015625zm15.453857 4.578125q-0.921875 0.765625 -1.765625 1.09375q-0.828125 0.3125 -1.796875 0.3125q-1.59375 0 -2.453125 -0.78125q-0.859375 -0.78125 -0.859375 -1.984375q0 -0.71875 0.328125 -1.296875q0.328125 -0.59375 0.84375 -0.9375q0.53125 -0.359375 1.1875 -0.546875q0.46875 -0.125 1.453125 -0.25q1.984375 -0.234375 2.921875 -0.5625q0.015625 -0.34375 0.015625 -0.421875q0 -1.0 -0.46875 -1.421875q-0.625 -0.546875 -1.875 -0.546875q-1.15625 0 -1.703125 0.40625q-0.546875 0.40625 -0.8125 1.421875l-1.609375 -0.21875q0.21875 -1.015625 0.71875 -1.640625q0.5 -0.640625 1.453125 -0.984375q0.953125 -0.34375 2.1875 -0.34375q1.25 0 2.015625 0.296875q0.78125 0.28125 1.140625 0.734375q0.375 0.4375 0.515625 1.109375q0.078125 0.421875 0.078125 1.515625l0 2.1875q0 2.28125 0.109375 2.890625q0.109375 0.59375 0.40625 1.15625l-1.703125 0q-0.265625 -0.515625 -0.328125 -1.1875zm-0.140625 -3.671875q-0.890625 0.375 -2.671875 0.625q-1.015625 0.140625 -1.4375 0.328125q-0.421875 0.1875 -0.65625 0.53125q-0.21875 0.34375 -0.21875 0.78125q0 0.65625 0.5 1.09375q0.5 0.4375 1.453125 0.4375q0.9375 0 1.671875 -0.40625q0.75 -0.421875 1.09375 -1.140625q0.265625 -0.5625 0.265625 -1.640625l0 -0.609375zm4.2037964 4.859375l0 -13.359375l1.640625 0l0 7.625l3.890625 -3.9375l2.109375 0l-3.6875 3.59375l4.0625 6.078125l-2.015625 0l-3.203125 -4.953125l-1.15625 1.125l0 3.828125l-1.640625 0zm20.823975 -3.546875l1.609375 0.21875q-0.265625 1.65625 -1.359375 2.609375q-1.078125 0.9375 -2.671875 0.9375q-1.984375 0 -3.1875 -1.296875q-1.203125 -1.296875 -1.203125 -3.71875q0 -1.578125 0.515625 -2.75q0.515625 -1.171875 1.578125 -1.75q1.0625 -0.59375 2.3125 -0.59375q1.578125 0 2.578125 0.796875q1.0 0.796875 1.28125 2.265625l-1.59375 0.234375q-0.234375 -0.96875 -0.8125 -1.453125q-0.578125 -0.5 -1.390625 -0.5q-1.234375 0 -2.015625 0.890625q-0.78125 0.890625 -0.78125 2.8125q0 1.953125 0.75 2.84375q0.75 0.875 1.953125 0.875q0.96875 0 1.609375 -0.59375q0.65625 -0.59375 0.828125 -1.828125zm2.40625 -1.296875q0 -2.6875 1.484375 -3.96875q1.25 -1.078125 3.046875 -1.078125q2.0 0 3.265625 1.3125q1.265625 1.296875 1.265625 3.609375q0 1.859375 -0.5625 2.9375q-0.5625 1.0625 -1.640625 1.65625q-1.0625 0.59375 -2.328125 0.59375q-2.03125 0 -3.28125 -1.296875q-1.25 -1.3125 -1.25 -3.765625zm1.6875 0q0 1.859375 0.796875 2.796875q0.8125 0.921875 2.046875 0.921875q1.21875 0 2.03125 -0.921875q0.8125 -0.9375 0.8125 -2.84375q0 -1.796875 -0.8125 -2.71875q-0.8125 -0.921875 -2.03125 -0.921875q-1.234375 0 -2.046875 0.921875q-0.796875 0.90625 -0.796875 2.765625zm15.625671 4.84375l0 -1.421875q-1.125 1.640625 -3.0625 1.640625q-0.859375 0 -1.609375 -0.328125q-0.734375 -0.328125 -1.09375 -0.828125q-0.359375 -0.5 -0.5 -1.21875q-0.109375 -0.46875 -0.109375 -1.53125l0 -5.984375l1.640625 0l0 5.359375q0 1.28125 0.109375 1.734375q0.15625 0.640625 0.65625 1.015625q0.5 0.375 1.234375 0.375q0.734375 0 1.375 -0.375q0.65625 -0.390625 0.921875 -1.03125q0.265625 -0.65625 0.265625 -1.890625l0 -5.1875l1.640625 0l0 9.671875l-1.46875 0zm4.0476074 3.703125l0 -13.375l1.484375 0l0 1.25q0.53125 -0.734375 1.1875 -1.09375q0.671875 -0.375 1.625 -0.375q1.234375 0 2.171875 0.640625q0.953125 0.625 1.4375 1.796875q0.484375 1.15625 0.484375 2.546875q0 1.484375 -0.53125 2.671875q-0.53125 1.1875 -1.546875 1.828125q-1.015625 0.625 -2.140625 0.625q-0.8125 0 -1.46875 -0.34375q-0.65625 -0.34375 -1.0625 -0.875l0 4.703125l-1.640625 0zm1.484375 -8.484375q0 1.859375 0.75 2.765625q0.765625 0.890625 1.828125 0.890625q1.09375 0 1.875 -0.921875q0.78125 -0.9375 0.78125 -2.875q0 -1.84375 -0.765625 -2.765625q-0.75 -0.921875 -1.8125 -0.921875q-1.046875 0 -1.859375 0.984375q-0.796875 0.96875 -0.796875 2.84375zm8.844482 4.78125l0 -13.359375l1.640625 0l0 13.359375l-1.640625 0zm4.1917114 -11.46875l0 -1.890625l1.640625 0l0 1.890625l-1.640625 0zm0 11.46875l0 -9.671875l1.640625 0l0 9.671875l-1.640625 0zm4.1447754 0l0 -9.671875l1.46875 0l0 1.375q1.0625 -1.59375 3.078125 -1.59375q0.875 0 1.609375 0.3125q0.734375 0.3125 1.09375 0.828125q0.375 0.5 0.515625 1.203125q0.09375 0.453125 0.09375 1.59375l0 5.953125l-1.640625 0l0 -5.890625q0 -1.0 -0.203125 -1.484375q-0.1875 -0.5 -0.671875 -0.796875q-0.484375 -0.296875 -1.140625 -0.296875q-1.046875 0 -1.8125 0.671875q-0.75 0.65625 -0.75 2.515625l0 5.28125l-1.640625 0zm10.063232 0.796875l1.59375 0.234375q0.109375 0.75 0.5625 1.078125q0.609375 0.453125 1.671875 0.453125q1.140625 0 1.75 -0.453125q0.625 -0.453125 0.84375 -1.265625q0.125 -0.5 0.109375 -2.109375q-1.0625 1.265625 -2.671875 1.265625q-2.0 0 -3.09375 -1.4375q-1.09375 -1.4375 -1.09375 -3.453125q0 -1.390625 0.5 -2.5625q0.515625 -1.171875 1.453125 -1.796875q0.953125 -0.640625 2.25 -0.640625q1.703125 0 2.8125 1.375l0 -1.15625l1.515625 0l0 8.359375q0 2.265625 -0.46875 3.203125q-0.453125 0.9375 -1.453125 1.484375q-0.984375 0.546875 -2.453125 0.546875q-1.71875 0 -2.796875 -0.78125q-1.0625 -0.765625 -1.03125 -2.34375zm1.359375 -5.8125q0 1.90625 0.75 2.78125q0.765625 0.875 1.90625 0.875q1.125 0 1.890625 -0.859375q0.765625 -0.875 0.765625 -2.734375q0 -1.78125 -0.796875 -2.671875q-0.78125 -0.90625 -1.890625 -0.90625q-1.09375 0 -1.859375 0.890625q-0.765625 0.875 -0.765625 2.625zm14.512146 -6.453125l0 -1.890625l1.640625 0l0 1.890625l-1.640625 0zm0 11.46875l0 -9.671875l1.640625 0l0 9.671875l-1.640625 0zm4.1448364 0l0 -9.671875l1.46875 0l0 1.375q1.0625 -1.59375 3.078125 -1.59375q0.875 0 1.609375 0.3125q0.734375 0.3125 1.09375 0.828125q0.375 0.5 0.515625 1.203125q0.09375 0.453125 0.09375 1.59375l0 5.953125l-1.640625 0l0 -5.890625q0 -1.0 -0.203125 -1.484375q-0.1875 -0.5 -0.671875 -0.796875q-0.484375 -0.296875 -1.140625 -0.296875q-1.046875 0 -1.8125 0.671875q-0.75 0.65625 -0.75 2.515625l0 5.28125l-1.640625 0zm19.137146 -1.46875l0.234375 1.453125q-0.6875 0.140625 -1.234375 0.140625q-0.890625 0 -1.390625 -0.28125q-0.484375 -0.28125 -0.6875 -0.734375q-0.203125 -0.46875 -0.203125 -1.9375l0 -5.578125l-1.203125 0l0 -1.265625l1.203125 0l0 -2.390625l1.625 -0.984375l0 3.375l1.65625 0l0 1.265625l-1.65625 0l0 5.671875q0 0.6875 0.078125 0.890625q0.09375 0.203125 0.28125 0.328125q0.203125 0.109375 0.578125 0.109375q0.265625 0 0.71875 -0.0625zm1.6051636 1.46875l0 -13.359375l1.640625 0l0 4.796875q1.140625 -1.328125 2.890625 -1.328125q1.078125 0 1.859375 0.421875q0.796875 0.421875 1.140625 1.171875q0.34375 0.75 0.34375 2.171875l0 6.125l-1.640625 0l0 -6.125q0 -1.234375 -0.53125 -1.796875q-0.53125 -0.5625 -1.515625 -0.5625q-0.71875 0 -1.359375 0.390625q-0.640625 0.375 -0.921875 1.015625q-0.265625 0.640625 -0.265625 1.78125l0 5.296875l-1.640625 0zm10.375732 -11.46875l0 -1.890625l1.640625 0l0 1.890625l-1.640625 0zm0 11.46875l0 -9.671875l1.640625 0l0 9.671875l-1.640625 0zm3.4885864 -2.890625l1.625 -0.25q0.125 0.96875 0.75 1.5q0.625 0.515625 1.75 0.515625q1.125 0 1.671875 -0.453125q0.546875 -0.46875 0.546875 -1.09375q0 -0.546875 -0.484375 -0.875q-0.328125 -0.21875 -1.671875 -0.546875q-1.8125 -0.46875 -2.515625 -0.796875q-0.6875 -0.328125 -1.046875 -0.90625q-0.359375 -0.59375 -0.359375 -1.3125q0 -0.640625 0.296875 -1.1875q0.296875 -0.5625 0.8125 -0.921875q0.375 -0.28125 1.03125 -0.46875q0.671875 -0.203125 1.421875 -0.203125q1.140625 0 2.0 0.328125q0.859375 0.328125 1.265625 0.890625q0.421875 0.5625 0.578125 1.5l-1.609375 0.21875q-0.109375 -0.75 -0.640625 -1.171875q-0.515625 -0.421875 -1.46875 -0.421875q-1.140625 0 -1.625 0.375q-0.46875 0.375 -0.46875 0.875q0 0.3125 0.1875 0.578125q0.203125 0.265625 0.640625 0.4375q0.234375 0.09375 1.4375 0.421875q1.75 0.453125 2.4375 0.75q0.6875 0.296875 1.078125 0.859375q0.390625 0.5625 0.390625 1.40625q0 0.828125 -0.484375 1.546875q-0.46875 0.71875 -1.375 1.125q-0.90625 0.390625 -2.046875 0.390625q-1.875 0 -2.875 -0.78125q-0.984375 -0.78125 -1.25 -2.328125z" fill-rule="nonzero"/><path fill="#ff0000" d="m755.9694 257.38824l0 -9.671875l1.46875 0l0 1.46875q0.5625 -1.03125 1.03125 -1.359375q0.484375 -0.328125 1.0625 -0.328125q0.828125 0 1.6875 0.53125l-0.5625 1.515625q-0.609375 -0.359375 -1.203125 -0.359375q-0.546875 0 -0.96875 0.328125q-0.421875 0.328125 -0.609375 0.890625q-0.28125 0.875 -0.28125 1.921875l0 5.0625l-1.625 0zm12.8532715 -3.109375l1.6875 0.203125q-0.40625 1.484375 -1.484375 2.3125q-1.078125 0.8125 -2.765625 0.8125q-2.125 0 -3.375 -1.296875q-1.234375 -1.3125 -1.234375 -3.671875q0 -2.453125 1.25 -3.796875q1.265625 -1.34375 3.265625 -1.34375q1.9375 0 3.15625 1.328125q1.234375 1.3125 1.234375 3.703125q0 0.15625 0 0.4375l-7.21875 0q0.09375 1.59375 0.90625 2.453125q0.8125 0.84375 2.015625 0.84375q0.90625 0 1.546875 -0.46875q0.640625 -0.484375 1.015625 -1.515625zm-5.390625 -2.65625l5.40625 0q-0.109375 -1.21875 -0.625 -1.828125q-0.78125 -0.953125 -2.03125 -0.953125q-1.125 0 -1.90625 0.765625q-0.765625 0.75 -0.84375 2.015625zm8.828857 6.5625l1.59375 0.234375q0.109375 0.75 0.5625 1.078125q0.609375 0.453125 1.671875 0.453125q1.140625 0 1.75 -0.453125q0.625 -0.453125 0.84375 -1.265625q0.125 -0.5 0.109375 -2.109375q-1.0625 1.265625 -2.671875 1.265625q-2.0 0 -3.09375 -1.4375q-1.09375 -1.4375 -1.09375 -3.453125q0 -1.390625 0.5 -2.5625q0.515625 -1.171875 1.453125 -1.796875q0.953125 -0.640625 2.25 -0.640625q1.703125 0 2.8125 1.375l0 -1.15625l1.515625 0l0 8.359375q0 2.265625 -0.46875 3.203125q-0.453125 0.9375 -1.453125 1.484375q-0.984375 0.546875 -2.453125 0.546875q-1.71875 0 -2.796875 -0.78125q-1.0625 -0.765625 -1.03125 -2.34375zm1.359375 -5.8125q0 1.90625 0.75 2.78125q0.765625 0.875 1.90625 0.875q1.125 0 1.890625 -0.859375q0.765625 -0.875 0.765625 -2.734375q0 -1.78125 -0.796875 -2.671875q-0.78125 -0.90625 -1.890625 -0.90625q-1.09375 0 -1.859375 0.890625q-0.765625 0.875 -0.765625 2.625zm9.328857 -6.453125l0 -1.890625l1.640625 0l0 1.890625l-1.640625 0zm0 11.46875l0 -9.671875l1.640625 0l0 9.671875l-1.640625 0zm3.5354614 -4.84375q0 -2.6875 1.484375 -3.96875q1.25 -1.078125 3.046875 -1.078125q2.0 0 3.265625 1.3125q1.265625 1.296875 1.265625 3.609375q0 1.859375 -0.5625 2.9375q-0.5625 1.0625 -1.640625 1.65625q-1.0625 0.59375 -2.328125 0.59375q-2.03125 0 -3.28125 -1.296875q-1.25 -1.3125 -1.25 -3.765625zm1.6875 0q0 1.859375 0.796875 2.796875q0.8125 0.921875 2.046875 0.921875q1.21875 0 2.03125 -0.921875q0.8125 -0.9375 0.8125 -2.84375q0 -1.796875 -0.8125 -2.71875q-0.8125 -0.921875 -2.03125 -0.921875q-1.234375 0 -2.046875 0.921875q-0.796875 0.90625 -0.796875 2.765625zm9.297546 4.84375l0 -9.671875l1.46875 0l0 1.375q1.0625 -1.59375 3.078125 -1.59375q0.875 0 1.609375 0.3125q0.734375 0.3125 1.09375 0.828125q0.375 0.5 0.515625 1.203125q0.09375 0.453125 0.09375 1.59375l0 5.953125l-1.640625 0l0 -5.890625q0 -1.0 -0.203125 -1.484375q-0.1875 -0.5 -0.671875 -0.796875q-0.484375 -0.296875 -1.140625 -0.296875q-1.046875 0 -1.8125 0.671875q-0.75 0.65625 -0.75 2.515625l0 5.28125l-1.640625 0zm10.828857 0l0 -1.875l1.875 0l0 1.875l-1.875 0z" fill-rule="nonzero"/></g></svg>